{"title":"How.We.Invented.The.World.S01E05.DVDRip.XviD-ARCHiViST","uid":11757758,"size":366139392,"categoryP":"video","categoryS":"tv_shows","magnet":"?xt=urn:btih:ffb468fd66df2f1415161bcd1612d07d9ca774c7&amp;dn=How.We.Invented.The.World.S01E05.DVDRip.XviD-ARCHiViST&amp;tr=udp%3A%2F%2Ftracker.openbittorrent.com%3A80&amp;tr=udp%3A%2F%2Fopen.demonii.com%3A1337&amp;tr=udp%3A%2F%2Ftracker.coppersurfer.tk%3A6969&amp;tr=udp%3A%2F%2Fexodus.desync.com%3A6969","seeders":1,"leechers":0,"uploader":"orangebirds","files":1,"time":1426483179,"description":"Audio in MP3\n\nGeneral\nComplete name : how.we.invented.the.world.s01e05.dvdrip.xvid-archivist.avi\nFormat : AVI\nFormat/Info : Audio Video Interleave\nFile size : 349 MiB\nDuration : 42mn 53s\nOverall bit rate mode : Variable\nOverall bit rate : 1 138 Kbps\nWriting application : VirtualDubMod 1.5.10.2 (build 2542/release)\nWriting library : VirtualDubMod build 2542/release\n\nVideo\nID : 0\nFormat : MPEG-4 Visual\nFormat profile : Advanced Simple@L5\nFormat settings, BVOP : 1\nFormat settings, QPel : No\nFormat settings, GMC : No warppoints\nFormat settings, Matrix : Default (H.263)\nMuxing mode : Packed bitstream\nCodec ID : XVID\nCodec ID/Hint : XviD\nDuration : 42mn 53s\nBit rate : 1 001 Kbps\nWidth : 624 pixels\nHeight : 352 pixels\nDisplay aspect ratio : 16:9\nFrame rate : 25.000 fps\nColor space : YUV\nChroma subsampling : 4:2:0\nBit depth : 8 bits\nScan type : Progressive\nCompression mode : Lossy\nBits/(Pixel*Frame) : 0.182\nStream size : 307 MiB (88%)\nWriting library : XviD 64\n\nAudio\nID : 1\nFormat : MPEG Audio\nFormat version : Version 1\nFormat profile : Layer 3\nMode : Joint stereo\nMode extension : MS Stereo\nCodec ID : 55\nCodec ID/Hint : MP3\nDuration : 42mn 53s\nBit rate mode : Variable\nBit rate : 128 Kbps\nChannel(s) : 2 channels\nSampling rate : 48.0 KHz\nCompression mode : Lossy\nStream size : 38.2 MiB (11%)\nAlignment : Aligned on interleaves\nInterleave, duration : 24 ms (0.60 video frame)\nInterleave, preload duration : 147 ms\nWriting library : LAME3.98r\nEncoding settings : -m j -V 4 -q 2 -lowpass 17 --abr 128","torrent":{"xt":"urn:btih:ffb468fd66df2f1415161bcd1612d07d9ca774c7","amp;dn":"How.We.Invented.The.World.S01E05.DVDRip.XviD-ARCHiViST","amp;tr":["udp%3A%2F%2Ftracker.openbittorrent.com%3A80","udp%3A%2F%2Fopen.demonii.com%3A1337","udp%3A%2F%2Ftracker.coppersurfer.tk%3A6969","udp%3A%2F%2Fexodus.desync.com%3A6969"],"infoHash":"ffb468fd66df2f1415161bcd1612d07d9ca774c7","infoHashBuffer":{"type":"Buffer","data":[255,180,104,253,102,223,47,20,21,22,27,205,22,18,208,125,156,167,116,199]},"announce":[],"urlList":[]}}